<svg width="24" height="24" viewBox="0 0 24 24" fill="none" xmlns="http://www.w3.org/2000/svg">
<path fill-rule="evenodd" clip-rule="evenodd" d="M4.64453 9.89532C4.64453 6.63942 7.28396 4 10.5399 4C13.7957 4 16.4352 6.63942 16.4352 9.89532C16.4352 11.6331 15.6833 13.1952 14.4871 14.2742C14.4536 14.3001 14.4213 14.3284 14.3905 14.3592C14.3901 14.3597 14.3896 14.3602 14.3891 14.3607C13.3563 15.2518 12.011 15.7906 10.5399 15.7906C7.28396 15.7906 4.64453 13.1512 4.64453 9.89532ZM15.0167 16.3996C13.7445 17.2769 12.2022 17.7906 10.5399 17.7906C6.17939 17.7906 2.64453 14.2558 2.64453 9.89532C2.64453 5.53485 6.17939 2 10.5399 2C14.9003 2 18.4352 5.53485 18.4352 9.89532C18.4352 11.8717 17.709 13.6785 16.5089 15.0633L20.9142 19.4687C21.3047 19.8592 21.3047 20.4923 20.9142 20.8829C20.5237 21.2734 19.8905 21.2734 19.5 20.8829L15.0167 16.3996Z" fill="#5FBD00"/>
</svg>
